<svg width="64" height="65" viewBox="0 0 64 65" fill="none" xmlns="http://www.w3.org/2000/svg">
<path d="M56.8889 0C58.7749 0 60.5836 0.754477 61.9172 2.09746C63.2508 3.44043 64 5.2619 64 7.16116V57.2893C64 59.1886 63.2508 61.01 61.9172 62.353C60.5836 63.696 58.7749 64.4505 56.8889 64.4505H7.11111C5.22513 64.4505 3.41639 63.696 2.0828 62.353C0.749204 61.01 0 59.1886 0 57.2893V7.16116C0 5.2619 0.749204 3.44043 2.0828 2.09746C3.41639 0.754477 5.22513 0 7.11111 0H56.8889ZM55.1111 55.499V36.5219C55.1111 33.4261 53.8899 30.4571 51.7162 28.2681C49.5424 26.079 46.5942 24.8492 43.52 24.8492C40.4978 24.8492 36.9778 26.7111 35.2711 29.504V25.5295H25.3511V55.499H35.2711V37.8467C35.2711 35.0897 37.4756 32.8339 40.2133 32.8339C41.5335 32.8339 42.7996 33.3621 43.7332 34.3021C44.6667 35.2422 45.1911 36.5173 45.1911 37.8467V55.499H55.1111ZM13.7956 19.908C15.3798 19.908 16.8991 19.2743 18.0193 18.1462C19.1396 17.0181 19.7689 15.488 19.7689 13.8927C19.7689 10.5627 17.1022 7.84147 13.7956 7.84147C12.2019 7.84147 10.6735 8.47901 9.54663 9.61382C8.41974 10.7486 7.78667 12.2878 7.78667 13.8927C7.78667 17.2226 10.4889 19.908 13.7956 19.908ZM18.7378 55.499V25.5295H8.88889V55.499H18.7378Z" fill="#363330"/>
</svg>
